<svg width="159" height="59" xmlns="http://www.w3.org/2000/svg" enable-background="new 0 0 278 100" version="1.1" xml:space="preserve">

 <g>
  <title>Layer 1</title>
  <path id="svg_48" fill="#ffffff" d="m3.4,0.4l0,14.9c0,5.6 2.5,8 5.8,8c3.7,0 6.1,-2.5 6.1,-8l0,-14.9l3.3,0l0,14.7c0,7.7 -4.10001,10.8 -9.5,10.8c-5.10001,0 -9,-2.9 -9,-10.7l0,-14.8l3.3,0z"/>
  <path id="svg_49" fill="#ffffff" d="m26,25.4l0,-25l3.60001,0l8,12.7c1.8,2.9 3.3,5.6 4.5,8.1l0.09999,0c-0.29999,-3.3 -0.39999,-6.4 -0.39999,-10.3l0,-10.5l3.10001,0l0,25.1l-3.3,0l-8,-12.7c-1.7,-2.8 -3.40001,-5.7 -4.60001,-8.4l-0.09999,0c0.2,3.2 0.2,6.2 0.2,10.3l0,10.7l-3.10001,0z"/>
  <path id="svg_50" fill="#ffffff" d="m55.60001,0.4l0,25.1l-3.3,0l0,-25.1l3.3,0z"/>
  <path id="svg_51" fill="#F04926" d="m84.2,14.4c-0.2,-3.5 -0.40001,-7.7 -0.40001,-10.8l-0.09999,0c-0.90001,2.9 -1.90001,6.1 -3.2,9.5l-4.40001,12.2l-2.5,0l-4.09999,-11.9c-1.20001,-3.5 -2.20001,-6.8 -2.90001,-9.7l-0.09999,0c-0.10001,3.1 -0.3,7.3 -0.5,11.1l-0.70001,10.7l-3.09999,0l1.7,-25.1l4.10001,0l4.29999,12.1c1,3.1 1.90001,5.9 2.5,8.5l0.10001,0c0.7,-2.5 1.60001,-5.3 2.7,-8.5l4.5,-12.1l4.10001,0l1.59999,25.1l-3.2,0l-0.39999,-11.1z"/>
  <path id="svg_52" fill="#F04926" d="m104.7,25.9c-6.7,0 -11.3,-5.1 -11.3,-12.7c0,-8 4.89999,-13.2 11.60001,-13.2c6.89999,0 11.29999,5.2 11.29999,12.7c0,8.5 -5.2,13.2 -11.59999,13.2zm0.2,-2.7c5.10001,0 8,-4.7 8,-10.4c0,-5 -2.60001,-10.2 -8,-10.2s-8.10001,5 -8.10001,10.4c0,5.3 2.90001,10.2 8.10001,10.2z"/>
  <path id="svg_53" fill="#F04926" d="m157.2,13.7l-9.70001,0l0,9l10.89999,0l0,2.7l-14.09998,0l0,-25l13.59998,0l0,2.7l-10.29999,0l0,7.9l9.70001,0l0,2.7l-0.10001,0z"/>
  <path id="svg_54" fill="#F04926" d="m139.50002,25.4l-3.7,0c-0.40001,-0.7 -1.10001,-2.9 -1.8,-6c-0.8,-3.5 -2.3,-4.8 -5.60001,-4.9l-3.7,0l0,10.9l-3.3,0l0,-24.7c1.60001,-0.3 4,-0.6 6.2,-0.6l0.5,0l0.20001,0l0.2,0l1.09999,0l0.10001,0c2.10001,0.1 3.60001,0.4 5.2,1.1l0.10001,0c0.09999,0 0.09999,0.1 0.2,0.1c0.10001,0.1 0.2,0.1 0.3,0.2s0.2,0.1 0.3,0.2c1.7,1.1 2.59999,2.5 2.8,4.5l0,0.8c0,3.3 -2.3,5.5 -5.20001,6.4l0,0.1c2.10001,0.7 3.40001,2.5 4,5.1c0.89999,3.5 1.60001,5.9 2.10001,6.8zm-11.40001,-13.3c4.8,0 6.90001,-1.9 6.90001,-4.8c0,-3.6 -3.3,-4.6 -5.8,-4.6c-1.60001,0 -3.89999,0.1 -4.39999,0.3l0,9.1l3.29999,0z"/>
  <path id="svg_55" fill="#ffffff" d="m3.8,46.3c-2.7,0 -3.1,-2.3 -3.1,-3.7l0,-5.5l0.9,0l0,5.4c0,1.9 0.8,2.9 2.2,2.9c1.5,0 2.3,-1 2.3,-2.9l0,-5.4l0.89999,0l0,5.4c0.10001,3.5 -2.2,3.8 -3.2,3.8z"/>
  <path id="svg_56" fill="#ffffff" d="m16.10001,46.2l-0.8,0l-3.39999,-5.2c-0.5,-0.8 -1,-1.5 -1.40001,-2.2l0,2.8l0,4.6l-0.89999,0l0,-9.1l0.8,0l0,0.1l3.39999,5.2c0.5,0.8 1,1.5 1.3,2.1c0,-0.9 -0.10001,-1.7 -0.10001,-2.9l0,-4.5l0.90001,0l0,9.1l0.2,0z"/>
  <rect id="svg_57" fill="#ffffff" width="0.9" height="9.1" x="18.6" y="37.1"/>
  <path id="svg_58" fill="#ffffff" d="m24.8,46.2l-0.8,0l0,-0.1l-3,-9l1,0l0,0.1l1.60001,4.8c0.3,1 0.59999,1.9 0.8,2.7c0.29999,-0.9 0.59999,-1.9 1,-2.9l1.7,-4.8l1,0l-3.3,9.2z"/>
  <polygon id="svg_59" fill="#ffffff" points="34.19999694824219,46.19999694824219 29.400009155273438,46.19999694824219 29.400009155273438,37.099998474121094 34,37.099998474121094 34,38 30.300003051757812,38 30.300003051757812,41 33.80000305175781,41 33.80000305175781,41.89999771118164 30.300003051757812,41.89999771118164 30.300003051757812,45.400001525878906 34.19999694824219,45.400001525878906 "/>
  <path id="svg_60" fill="#ffffff" d="m41.60001,46c-0.2,-0.4 -0.40001,-1.1 -0.60001,-2.3c-0.2,-0.9 -0.59999,-1.5 -1.09999,-1.8c1,-0.4 1.5,-1.3 1.5,-2.3c0,-0.6 -0.20001,-1.3 -0.70001,-1.7c-0.5,-0.5 -1.29999,-0.8 -2.5,-0.8c-0.7,0 -1.39999,0.1 -1.89999,0.2l-0.10001,0l0,8.9l0.90001,0l0,-4l1.2,0c1.10001,0 1.60001,0.5 1.8,1.8c0.2,1.1 0.39999,1.9 0.59999,2.2l0,0.1l1,0l-0.09999,-0.3zm-3.3,-4.6l-1.2,0l0,-3.4c0.2,0 0.59999,-0.1 1.09999,-0.1c1,0 2.20001,0.3 2.20001,1.7c0,1.1 -0.8,1.8 -2.10001,1.8z"/>
  <path id="svg_61" fill="#ffffff" d="m45.2,46.3c-0.8,0 -1.7,-0.3 -2.2,-0.6l-0.10001,-0.1l0.39999,-0.8l0.20001,0.10001c0.5,0.3 1.2,0.5 1.79999,0.5c1.20001,0 2,-0.60001 2,-1.7c0,-0.9 -0.5,-1.4 -1.7,-1.9c-1.59999,-0.6 -2.39999,-1.4 -2.39999,-2.6c0,-1.4 1.09999,-2.4 2.7,-2.4c0.89999,0 1.5,0.2 1.8,0.4l0.09999,0.1l-0.39999,0.8l-0.2,-0.1c-0.2,-0.2 -0.8,-0.4 -1.40001,-0.4c-1.39999,0 -1.7,0.9 -1.7,1.4c0,0.8 0.40001,1.3 1.7,1.8c1.40001,0.6 2.3,1.2 2.3,2.7c0,2 -1.5,2.8 -2.89999,2.8z"/>
  <rect id="svg_62" fill="#ffffff" width="1" height="9.1" x="50.2" y="37.1"/>
  <polygon id="svg_63" fill="#ffffff" points="56.19999694824219,46.19999694824219 55.30000305175781,46.19999694824219 55.30000305175781,38 52.40000915527344,38 52.40000915527344,37.099998474121094 59.100006103515625,37.099998474121094 59.100006103515625,38 56.19999694824219,38 "/>
  <polygon id="svg_64" fill="#ffffff" points="61.69999694824219,34.69999694824219 61.69999694824219,34.69999694824219 60.5,34.69999694824219 60.19999694824219,34.69999694824219 60.40000915527344,34.89999771118164 62.30000305175781,36.5 62.30000305175781,36.5 62.30000305175781,36.5 63.100006103515625,36.5 63.30000305175781,36.5 63.100006103515625,36.29999923706055 61.69999694824219,34.79999923706055 61.69999694824219,34.69999694824219 "/>
  <path id="svg_65" fill="#ffffff" d="m62.8,37.2l0,-0.1l-0.8,0l-3.3,9.1l1,0l1.10001,-3.1l3.2,0l1.10001,3.1l1,0l-3.3,-9zm-1.7,5.1l1,-2.7c0.09999,-0.4 0.2,-0.7 0.3,-1c0.09999,0.3 0.2,0.6 0.29999,1l1,2.7l-2.59999,0z"/>
  <path id="svg_66" fill="#ffffff" d="m77.10001,38.3c-0.8,-0.8 -2,-1.2 -3.60001,-1.2c-0.8,0 -1.5,0.1 -2.3,0.2l-0.09999,0l0,8.9l0.09999,0c0.60001,0 1.20001,0.1 2,0.1c1.70001,0 3.10001,-0.5 3.90001,-1.39999s1.2,-2 1.2,-3.4c-0.10001,-1.4 -0.39999,-2.4 -1.2,-3.2zm-3.90001,7.1l-1.2,0l0,-7.3c0.3,-0.1 0.8,-0.1 1.40001,-0.1c1.29999,0 2.29999,0.3 3,1c0.59999,0.6 0.89999,1.5 0.89999,2.6c0,2.4 -1.5,3.8 -4.10001,3.8z"/>
  <polygon id="svg_67" fill="#ffffff" points="85,46.19999694824219 80.19999694824219,46.19999694824219 80.19999694824219,37.099998474121094 84.80000305175781,37.099998474121094 84.80000305175781,38 81.10000610351562,38 81.10000610351562,41 84.60000610351562,41 84.60000610351562,41.89999771118164 81.10000610351562,41.89999771118164 81.10000610351562,45.400001525878906 85,45.400001525878906 "/>
  <path id="svg_68" fill="#ffffff" d="m90.8,46.3c-1.39999,0 -2.39999,-0.39999 -3.2,-1.2s-1.3,-2 -1.3,-3.4c0,-2.3 1.5,-4.7 4.7,-4.7c1,0 1.8,0.3 2.10001,0.4l0.09999,0.1l-0.29999,0.8l-0.20001,-0.1c-0.5,-0.2 -1.09999,-0.4 -1.79999,-0.4c-2.3,0 -3.70001,1.5 -3.70001,3.8c0,2.4 1.3,3.8 3.60001,3.8c0.89999,0 1.39999,-0.10001 1.7,-0.2l0,-2.8l-2,0l0,-0.8l3,0l0,4.2l-0.09999,0c-0.3,0.2 -1.3,0.5 -2.60001,0.5z"/>
  <polygon id="svg_69" fill="#ffffff" points="100.60000610351562,46.19999694824219 95.80000305175781,46.19999694824219 95.80000305175781,37.099998474121094 96.69999694824219,37.099998474121094 96.69999694824219,45.400001525878906 100.60000610351562,45.400001525878906 "/>
  <rect id="svg_70" fill="#ffffff" width="0.9" height="9.1" x="102.3" y="37.1"/>
  <path id="svg_71" fill="#ffffff" d="m111.10001,46.3c-0.8,0 -1.7,-0.3 -2.2,-0.6l-0.10001,-0.1l0.39999,-0.8l0.20001,0.10001c0.5,0.3 1.2,0.5 1.79999,0.5c1.20001,0 2,-0.60001 2,-1.7c0,-0.9 -0.5,-1.4 -1.7,-1.9c-1.59999,-0.6 -2.39999,-1.4 -2.39999,-2.6c0,-1.4 1.09999,-2.4 2.7,-2.4c0.89999,0 1.5,0.2 1.8,0.4l0.09999,0.1l-0.39999,0.8l-0.2,-0.1c-0.2,-0.2 -0.8,-0.4 -1.40001,-0.4c-1.39999,0 -1.7,0.9 -1.7,1.4c0,0.8 0.40001,1.3 1.7,1.8c1.40001,0.6 2.3,1.2 2.3,2.7c0,2 -1.5,2.8 -2.89999,2.8z"/>
  <polygon id="svg_72" fill="#ffffff" points="118.69999694824219,46.19999694824219 117.69999694824219,46.19999694824219 117.69999694824219,38 114.90000915527344,38 114.90000915527344,37.099998474121094 121.5,37.099998474121094 121.5,38 118.69999694824219,38 "/>
  <path id="svg_73" fill="#ffffff" d="m125.90001,46.3c-2.7,0 -3.09999,-2.3 -3.09999,-3.7l0,-5.5l0.89999,0l0,5.4c0,1.9 0.8,2.9 2.2,2.9c1.5,0 2.3,-1 2.3,-2.9l0,-5.4l0.89999,0l0,5.4c0.10001,3.5 -2.2,3.8 -3.2,3.8z"/>
  <path id="svg_74" fill="#ffffff" d="m137.7,38.3c-0.8,-0.8 -2,-1.2 -3.60001,-1.2c-0.8,0 -1.5,0.1 -2.3,0.2l-0.09999,0l0,8.9l0.09999,0c0.60001,0 1.20001,0.1 2,0.1c1.70001,0 3.10001,-0.5 3.90001,-1.39999s1.19998,-2 1.19998,-3.4s-0.39999,-2.4 -1.19998,-3.2zm-3.8,7.1l-1.2,0l0,-7.3c0.3,-0.1 0.8,-0.1 1.39999,-0.1c1.3,0 2.3,0.3 3,1c0.60001,0.6 0.89999,1.5 0.89999,2.6c-0.10001,2.4 -1.49998,3.8 -4.09999,3.8z"/>
  <rect id="svg_75" fill="#ffffff" width="0.9" height="9.1" x="140.5" y="37.1"/>
  <rect id="svg_76" fill="#ffffff" width="0.9" height="9.1" x="156" y="37.1"/>
  <path id="svg_77" fill="#ffffff" d="m153.3,38.3c-0.79999,-0.8 -2,-1.2 -3.60001,-1.2c-0.79999,0 -1.5,0.1 -2.29999,0.2l-0.10001,0l0,8.9l0.10001,0c0.60001,0 1.19998,0.1 2,0.1c1.69998,0 3.10001,-0.5 3.89999,-1.39999s1.20001,-2 1.20001,-3.4c-0.10001,-1.4 -0.5,-2.4 -1.20001,-3.2zm-3.89999,7.1l-1.30002,0l0,-7.3c0.30002,-0.1 0.80002,-0.1 1.40002,-0.1c1.29999,0 2.29999,0.3 3,1c0.59998,0.6 0.89999,1.5 0.89999,2.6c0.10001,2.4 -1.39999,3.8 -4,3.8z"/>
  <path id="svg_78" fill="#ffffff" d="m8.9,59.2l-0.9,0l0,-0.2l-0.3,-4.6c-0.1,-0.8 -0.1,-1.8 -0.1,-2.60001c-0.3,0.7 -0.5,1.5 -0.9,2.5l-1.9,4.9l-0.7,0l-1.8,-4.8c-0.4,-1 -0.6,-1.8 -0.9,-2.5c0,0.8 -0.1,1.89999 -0.2,3.1l-0.3,4.2l-0.9,0l0.7,-9.1l1,0l0,0.1l1.9,5c0.3,0.9 0.6,1.6 0.8,2.4c0.2,-0.6 0.5,-1.4 0.8,-2.4l2,-5.2l1,0l0.7,9.2z"/>
  <path id="svg_79" fill="#ffffff" d="m14.90001,50c-2.39999,0 -4.09999,2 -4.09999,4.8c0,2.7 1.59999,4.60001 4,4.60001c2,0 4.09999,-1.5 4.09999,-4.8c0,-2.7 -1.59999,-4.6 -4,-4.6zm0,8.5c-2,0 -3,-1.9 -3,-3.8s1,-3.9 3.10001,-3.9c2,0 3,1.9 3,3.8c-0.10001,2.7 -1.7,3.9 -3.10001,3.9z"/>
  <path id="svg_80" fill="#ffffff" d="m27.10001,51.3c-0.8,-0.8 -2,-1.2 -3.60001,-1.2c-0.8,0 -1.5,0.1 -2.3,0.2l-0.09999,0l0,8.9l0.09999,0c0.70001,0.1 1.40001,0.1 2,0.1c1.70001,0 3.10001,-0.5 3.90001,-1.39999s1.2,-2 1.2,-3.4c0,-1.3 -0.39999,-2.4 -1.2,-3.2zm-3.8,7.10001l-1.2,0l0,-7.3c0.3,-0.1 0.8,-0.1 1.39999,-0.1c1.3,0 2.3,0.3 3,1c0.60001,0.6 0.90001,1.5 0.90001,2.6c-0.10001,2.4 -1.5,3.8 -4.10001,3.8z"/>
  <polygon id="svg_81" fill="#ffffff" points="35.30000305175781,59.19999694824219 30.5,59.19999694824219 30.5,50.099998474121094 35.100006103515625,50.099998474121094 35.100006103515625,51 31.400009155273438,51 31.400009155273438,54 34.90000915527344,54 34.90000915527344,54.900001525878906 31.400009155273438,54.900001525878906 31.400009155273438,58.400001525878906 35.30000305175781,58.400001525878906 "/>
  <path id="svg_82" fill="#ffffff" d="m44,59.2l-0.8,0l-3.39999,-5.2c-0.5,-0.8 -1,-1.6 -1.39999,-2.2l0,2.8l0,4.6l-0.90001,0l0,-9.1l0.8,0l3.39999,5.2c0.5,0.8 1,1.5 1.3,2.10001c0,-0.9 -0.09999,-1.7 -0.09999,-2.9l0,-4.4l0.89999,0l0,9.1l0.2,0z"/>
  <path id="svg_83" fill="#ffffff" d="m50.10001,50.3l0,-0.1l-0.8,0l-3.2,8.9l-0.10001,0.2l1,0l1.10001,-3.1l3.2,0l1.10001,3.1l1,0l-3.3,-9zm-1.7,5l1,-2.7c0.09999,-0.4 0.2,-0.7 0.29999,-1c0.10001,0.3 0.20001,0.6 0.3,1l1,2.7l-2.59999,0z"/>
  <polygon id="svg_84" fill="#ffffff" points="63.80000305175781,59.19999694824219 58.90000915527344,59.19999694824219 58.90000915527344,50.099998474121094 63.600006103515625,50.099998474121094 63.600006103515625,51 59.90000915527344,51 59.90000915527344,54 63.40000915527344,54 63.40000915527344,54.900001525878906 59.90000915527344,54.900001525878906 59.90000915527344,58.400001525878906 63.80000305175781,58.400001525878906 "/>
  <path id="svg_85" fill="#ffffff" d="m75.2,59c-0.2,-0.3 -0.40001,-1.1 -0.60001,-2.3c-0.2,-0.9 -0.59999,-1.5 -1.09999,-1.8c1,-0.4 1.5,-1.3 1.5,-2.3c0,-0.6 -0.20001,-1.3 -0.70001,-1.7c-0.5,-0.5 -1.29999,-0.8 -2.5,-0.8c-0.7,0 -1.39999,0.1 -1.89999,0.2l-0.10001,0l0,8.9l0.90001,0l0,-4l1.2,0c1.10001,0 1.60001,0.5 1.8,1.8c0.2,1.1 0.39999,1.9 0.59999,2.2l0,0.1l1,0l-0.09999,-0.3zm-3.3,-4.6l-1.2,0l0,-3.4c0.2,0 0.59999,-0.1 1.09999,-0.1c1,0 2.20001,0.3 2.20001,1.7c0,1.1 -0.8,1.8 -2.10001,1.8z"/>
  <polygon id="svg_86" fill="#ffffff" points="82.10000610351562,59.19999694824219 77.30000305175781,59.19999694824219 77.30000305175781,50.099998474121094 81.90000915527344,50.099998474121094 81.90000915527344,51 78.19999694824219,51 78.19999694824219,54 81.69999694824219,54 81.69999694824219,54.900001525878906 78.19999694824219,54.900001525878906 78.19999694824219,58.400001525878906 82.10000610351562,58.400001525878906 "/>
  <path id="svg_87" fill="#ffffff" d="m88.2,59.3c-1.40001,0 -2.40001,-0.39999 -3.2,-1.2s-1.3,-2 -1.3,-3.4c0,-2.3 1.5,-4.7 4.7,-4.7c0.89999,0 1.7,0.2 2.10001,0.4l0.09999,0.1l-0.3,0.8l-0.2,-0.1c-0.5,-0.2 -1.09999,-0.4 -1.8,-0.4c-2.29999,0 -3.7,1.5 -3.7,3.8c0,2.4 1.3,3.8 3.60001,3.8c0.89999,0 1.39999,-0.10001 1.7,-0.2l0,-2.8l-2,0l0,-0.8l3,0l0,4.2l-0.10001,0c-0.29999,0.2 -1.29999,0.5 -2.59999,0.5z"/>
  <path id="svg_88" fill="#ffffff" d="m97.3,59.3c-1.39999,0 -2.39999,-0.39999 -3.2,-1.2s-1.3,-2 -1.3,-3.4c0,-2.3 1.5,-4.7 4.7,-4.7c0.90001,0 1.7,0.2 2.10001,0.4l0.09999,0.1l-0.29999,0.8l-0.20001,-0.1c-0.5,-0.2 -1.09999,-0.4 -1.79999,-0.4c-2.3,0 -3.70001,1.5 -3.70001,3.8c0,2.4 1.3,3.8 3.60001,3.8c0.89999,0 1.39999,-0.10001 1.7,-0.2l0,-2.8l-2,0l0,-0.8l3,0l0,4.2l-0.09999,0c-0.40001,0.2 -1.3,0.5 -2.60001,0.5z"/>
  <rect id="svg_89" fill="#ffffff" width="0.9" height="9.1" x="102.4" y="50.1"/>
  <path id="svg_90" fill="#ffffff" d="m109.7,50c-2.40001,0 -4.10001,2 -4.10001,4.8c0,2.7 1.60001,4.60001 4,4.60001c2,0 4.10001,-1.5 4.10001,-4.8c0,-2.7 -1.60001,-4.6 -4,-4.6zm-0.10001,8.5c-2,0 -3,-1.9 -3,-3.8s1,-3.9 3.10001,-3.9c2,0 3,1.9 3,3.8c0,2.7 -1.60001,3.9 -3.10001,3.9z"/>
  <polygon id="svg_91" fill="#ffffff" points="124.40000915527344,59.19999694824219 119.60000610351562,59.19999694824219 119.60000610351562,50.099998474121094 124.19999694824219,50.099998474121094 124.19999694824219,51 120.5,51 120.5,54 124,54 124,54.900001525878906 120.5,54.900001525878906 120.5,58.400001525878906 124.40000915527344,58.400001525878906 "/>
  <path id="svg_92" fill="#ffffff" d="m135.2,59.2l-0.90001,0l0,-0.1l-0.29999,-4.8c0,-0.8 -0.10001,-1.7 -0.10001,-2.39999c-0.3,0.7 -0.5,1.5 -0.89999,2.5l-1.90001,4.89999l-0.7,0l-1.8,-4.8c-0.3,-0.9 -0.59999,-1.8 -0.89999,-2.5c0,0.7 -0.10001,1.8 -0.2,3.1l-0.3,4.2l-0.90001,0l0.70001,-9.1l1,0l0,0.1l1.89999,5c0.3,0.9 0.60001,1.7 0.8,2.4c0.2,-0.7 0.5,-1.5 0.8,-2.4l2,-5.2l1,0l0,0.1l0.7,9z"/>
  <rect id="svg_93" fill="#ffffff" width="0.9" height="9.1" x="137.7" y="50.1"/>
  <polygon id="svg_94" fill="#ffffff" points="146.1999969482422,59.19999694824219 141.40000915527344,59.19999694824219 141.40000915527344,50.099998474121094 142.3000030517578,50.099998474121094 142.3000030517578,58.400001525878906 146.1999969482422,58.400001525878906 "/>
  <rect id="svg_95" fill="#ffffff" width="0.9" height="9.1" x="148.2" y="50.1"/>
  <path id="svg_96" fill="#ffffff" d="m155.3,50.3l0,-0.1l-0.79999,0l-3.20001,8.9l-0.10001,0.2l1,0l1.10001,-3.1l3.20001,0l1.09998,3.1l1,0l-3.29999,-9zm-1.79999,5l1,-2.7c0.09998,-0.4 0.19998,-0.7 0.29999,-1c0.10001,0.3 0.20001,0.6 0.29999,1l1,2.7l-2.59998,0z"/>
 </g>
</svg>